<?xml version="1.0" encoding="utf-8" standalone="no"?>
<!DOCTYPE svg PUBLIC "-//W3C//DTD SVG 1.1//EN"
  "http://www.w3.org/Graphics/SVG/1.1/DTD/svg11.dtd">
<svg xmlns:xlink="http://www.w3.org/1999/xlink" width="928.386875pt" height="352.124649pt" viewBox="0 0 928.386875 352.124649" xmlns="http://www.w3.org/2000/svg" version="1.1">
 <metadata>
  <rdf:RDF xmlns:dc="http://purl.org/dc/elements/1.1/" xmlns:cc="http://creativecommons.org/ns#" xmlns:rdf="http://www.w3.org/1999/02/22-rdf-syntax-ns#">
   <cc:Work>
    <dc:type rdf:resource="http://purl.org/dc/dcmitype/StillImage"/>
    <dc:date>2026-05-01T14:01:17.911808</dc:date>
    <dc:format>image/svg+xml</dc:format>
    <dc:creator>
     <cc:Agent>
      <dc:title>Matplotlib v3.10.9, https://matplotlib.org/</dc:title>
     </cc:Agent>
    </dc:creator>
   </cc:Work>
  </rdf:RDF>
 </metadata>
 <defs>
  <style type="text/css">*{stroke-linejoin: round; stroke-linecap: butt}</style>
 </defs>
 <g id="figure_1">
  <g id="patch_1">
   <path d="M 0 352.124649 
L 928.386875 352.124649 
L 928.386875 0 
L 0 0 
z
" style="fill: #0d1117"/>
  </g>
  <g id="axes_1">
   <g id="patch_2">
    <path d="M 45.056875 308.487352 
L 921.186875 308.487352 
L 921.186875 29.077969 
L 45.056875 29.077969 
z
" style="fill: #0d1117"/>
   </g>
   <g id="matplotlib.axis_1">
    <g id="xtick_1">
     <g id="line2d_1">
      <path d="M 120.673433 308.487352 
L 120.673433 29.077969 
" clip-path="url(#pb3ceb3d903)" style="fill: none; stroke: #30363d; stroke-width: 0.5; stroke-linecap: square"/>
     </g>
     <g id="line2d_2">
      <defs>
       <path id="m4ef87ccb12" d="M 0 0 
L 0 3.5 
" style="stroke: #8b949e; stroke-width: 0.8"/>
      </defs>
      <g>
       <use xlink:href="#m4ef87ccb12" x="120.673433" y="308.487352" style="fill: #8b949e; stroke: #8b949e; stroke-width: 0.8"/>
      </g>
     </g>
     <g id="text_1">
      <!-- Jan 15 -->
      <g style="fill: #8b949e" transform="translate(112.463923 340.254098) rotate(-45) scale(0.09 -0.09)">
       <defs>
        <path id="DejaVuSans-4a" d="M 628 4666 
L 1259 4666 
L 1259 325 
Q 1259 -519 939 -900 
Q 619 -1281 -91 -1281 
L -331 -1281 
L -331 -750 
L -134 -750 
Q 284 -750 456 -515 
Q 628 -281 628 325 
L 628 4666 
z
" transform="scale(0.015625)"/>
        <path id="DejaVuSans-61" d="M 2194 1759 
Q 1497 1759 1228 1600 
Q 959 1441 959 1056 
Q 959 750 1161 570 
Q 1363 391 1709 391 
Q 2188 391 2477 730 
Q 2766 1069 2766 1631 
L 2766 1759 
L 2194 1759 
z
M 3341 1997 
L 3341 0 
L 2766 0 
L 2766 531 
Q 2569 213 2275 61 
Q 1981 -91 1556 -91 
Q 1019 -91 701 211 
Q 384 513 384 1019 
Q 384 1609 779 1909 
Q 1175 2209 1959 2209 
L 2766 2209 
L 2766 2266 
Q 2766 2663 2505 2880 
Q 2244 3097 1772 3097 
Q 1472 3097 1187 3025 
Q 903 2953 641 2809 
L 641 3341 
Q 956 3463 1253 3523 
Q 1550 3584 1831 3584 
Q 2591 3584 2966 3190 
Q 3341 2797 3341 1997 
z
" transform="scale(0.015625)"/>
        <path id="DejaVuSans-6e" d="M 3513 2113 
L 3513 0 
L 2938 0 
L 2938 2094 
Q 2938 2591 2744 2837 
Q 2550 3084 2163 3084 
Q 1697 3084 1428 2787 
Q 1159 2491 1159 1978 
L 1159 0 
L 581 0 
L 581 3500 
L 1159 3500 
L 1159 2956 
Q 1366 3272 1645 3428 
Q 1925 3584 2291 3584 
Q 2894 3584 3203 3211 
Q 3513 2838 3513 2113 
z
" transform="scale(0.015625)"/>
        <path id="DejaVuSans-20" transform="scale(0.015625)"/>
        <path id="DejaVuSans-31" d="M 794 531 
L 1825 531 
L 1825 4091 
L 703 3866 
L 703 4441 
L 1819 4666 
L 2450 4666 
L 2450 531 
L 3481 531 
L 3481 0 
L 794 0 
L 794 531 
z
" transform="scale(0.015625)"/>
        <path id="DejaVuSans-35" d="M 691 4666 
L 3169 4666 
L 3169 4134 
L 1269 4134 
L 1269 2991 
Q 1406 3038 1543 3061 
Q 1681 3084 1819 3084 
Q 2600 3084 3056 2656 
Q 3513 2228 3513 1497 
Q 3513 744 3044 326 
Q 2575 -91 1722 -91 
Q 1428 -91 1123 -41 
Q 819 9 494 109 
L 494 744 
Q 775 591 1075 516 
Q 1375 441 1709 441 
Q 2250 441 2565 725 
Q 2881 1009 2881 1497 
Q 2881 1984 2565 2268 
Q 2250 2553 1709 2553 
Q 1456 2553 1204 2497 
Q 953 2441 691 2322 
L 691 4666 
z
" transform="scale(0.015625)"/>
       </defs>
       <use xlink:href="#DejaVuSans-4a"/>
       <use xlink:href="#DejaVuSans-61" transform="translate(29.492188 0)"/>
       <use xlink:href="#DejaVuSans-6e" transform="translate(90.771484 0)"/>
       <use xlink:href="#DejaVuSans-20" transform="translate(154.150391 0)"/>
       <use xlink:href="#DejaVuSans-31" transform="translate(185.9375 0)"/>
       <use xlink:href="#DejaVuSans-35" transform="translate(249.560547 0)"/>
      </g>
     </g>
    </g>
    <g id="xtick_2">
     <g id="line2d_3">
      <path d="M 242.367821 308.487352 
L 242.367821 29.077969 
" clip-path="url(#pb3ceb3d903)" style="fill: none; stroke: #30363d; stroke-width: 0.5; stroke-linecap: square"/>
     </g>
     <g id="line2d_4">
      <g>
       <use xlink:href="#m4ef87ccb12" x="242.367821" y="308.487352" style="fill: #8b949e; stroke: #8b949e; stroke-width: 0.8"/>
      </g>
     </g>
     <g id="text_2">
      <!-- Feb 01 -->
      <g style="fill: #8b949e" transform="translate(233.430434 341.709854) rotate(-45) scale(0.09 -0.09)">
       <defs>
        <path id="DejaVuSans-46" d="M 628 4666 
L 3309 4666 
L 3309 4134 
L 1259 4134 
L 1259 2759 
L 3109 2759 
L 3109 2228 
L 1259 2228 
L 1259 0 
L 628 0 
L 628 4666 
z
" transform="scale(0.015625)"/>
        <path id="DejaVuSans-65" d="M 3597 1894 
L 3597 1613 
L 953 1613 
Q 991 1019 1311 708 
Q 1631 397 2203 397 
Q 2534 397 2845 478 
Q 3156 559 3463 722 
L 3463 178 
Q 3153 47 2828 -22 
Q 2503 -91 2169 -91 
Q 1331 -91 842 396 
Q 353 884 353 1716 
Q 353 2575 817 3079 
Q 1281 3584 2069 3584 
Q 2775 3584 3186 3129 
Q 3597 2675 3597 1894 
z
M 3022 2063 
Q 3016 2534 2758 2815 
Q 2500 3097 2075 3097 
Q 1594 3097 1305 2825 
Q 1016 2553 972 2059 
L 3022 2063 
z
" transform="scale(0.015625)"/>
        <path id="DejaVuSans-62" d="M 3116 1747 
Q 3116 2381 2855 2742 
Q 2594 3103 2138 3103 
Q 1681 3103 1420 2742 
Q 1159 2381 1159 1747 
Q 1159 1113 1420 752 
Q 1681 391 2138 391 
Q 2594 391 2855 752 
Q 3116 1113 3116 1747 
z
M 1159 2969 
Q 1341 3281 1617 3432 
Q 1894 3584 2278 3584 
Q 2916 3584 3314 3078 
Q 3713 2572 3713 1747 
Q 3713 922 3314 415 
Q 2916 -91 2278 -91 
Q 1894 -91 1617 61 
Q 1341 213 1159 525 
L 1159 0 
L 581 0 
L 581 4863 
L 1159 4863 
L 1159 2969 
z
" transform="scale(0.015625)"/>
        <path id="DejaVuSans-30" d="M 2034 4250 
Q 1547 4250 1301 3770 
Q 1056 3291 1056 2328 
Q 1056 1369 1301 889 
Q 1547 409 2034 409 
Q 2525 409 2770 889 
Q 3016 1369 3016 2328 
Q 3016 3291 2770 3770 
Q 2525 4250 2034 4250 
z
M 2034 4750 
Q 2819 4750 3233 4129 
Q 3647 3509 3647 2328 
Q 3647 1150 3233 529 
Q 2819 -91 2034 -91 
Q 1250 -91 836 529 
Q 422 1150 422 2328 
Q 422 3509 836 4129 
Q 1250 4750 2034 4750 
z
" transform="scale(0.015625)"/>
       </defs>
       <use xlink:href="#DejaVuSans-46"/>
       <use xlink:href="#DejaVuSans-65" transform="translate(52.019531 0)"/>
       <use xlink:href="#DejaVuSans-62" transform="translate(113.542969 0)"/>
       <use xlink:href="#DejaVuSans-20" transform="translate(177.019531 0)"/>
       <use xlink:href="#DejaVuSans-30" transform="translate(208.806641 0)"/>
       <use xlink:href="#DejaVuSans-31" transform="translate(272.429688 0)"/>
      </g>
     </g>
    </g>
    <g id="xtick_3">
     <g id="line2d_5">
      <path d="M 342.58673 308.487352 
L 342.58673 29.077969 
" clip-path="url(#pb3ceb3d903)" style="fill: none; stroke: #30363d; stroke-width: 0.5; stroke-linecap: square"/>
     </g>
     <g id="line2d_6">
      <g>
       <use xlink:href="#m4ef87ccb12" x="342.58673" y="308.487352" style="fill: #8b949e; stroke: #8b949e; stroke-width: 0.8"/>
      </g>
     </g>
     <g id="text_3">
      <!-- Feb 15 -->
      <g style="fill: #8b949e" transform="translate(333.649342 341.709854) rotate(-45) scale(0.09 -0.09)">
       <use xlink:href="#DejaVuSans-46"/>
       <use xlink:href="#DejaVuSans-65" transform="translate(52.019531 0)"/>
       <use xlink:href="#DejaVuSans-62" transform="translate(113.542969 0)"/>
       <use xlink:href="#DejaVuSans-20" transform="translate(177.019531 0)"/>
       <use xlink:href="#DejaVuSans-31" transform="translate(208.806641 0)"/>
       <use xlink:href="#DejaVuSans-35" transform="translate(272.429688 0)"/>
      </g>
     </g>
    </g>
    <g id="xtick_4">
     <g id="line2d_7">
      <path d="M 442.805638 308.487352 
L 442.805638 29.077969 
" clip-path="url(#pb3ceb3d903)" style="fill: none; stroke: #30363d; stroke-width: 0.5; stroke-linecap: square"/>
     </g>
     <g id="line2d_8">
      <g>
       <use xlink:href="#m4ef87ccb12" x="442.805638" y="308.487352" style="fill: #8b949e; stroke: #8b949e; stroke-width: 0.8"/>
      </g>
     </g>
     <g id="text_4">
      <!-- Mar 01 -->
      <g style="fill: #8b949e" transform="translate(433.497847 342.450659) rotate(-45) scale(0.09 -0.09)">
       <defs>
        <path id="DejaVuSans-4d" d="M 628 4666 
L 1569 4666 
L 2759 1491 
L 3956 4666 
L 4897 4666 
L 4897 0 
L 4281 0 
L 4281 4097 
L 3078 897 
L 2444 897 
L 1241 4097 
L 1241 0 
L 628 0 
L 628 4666 
z
" transform="scale(0.015625)"/>
        <path id="DejaVuSans-72" d="M 2631 2963 
Q 2534 3019 2420 3045 
Q 2306 3072 2169 3072 
Q 1681 3072 1420 2755 
Q 1159 2438 1159 1844 
L 1159 0 
L 581 0 
L 581 3500 
L 1159 3500 
L 1159 2956 
Q 1341 3275 1631 3429 
Q 1922 3584 2338 3584 
Q 2397 3584 2469 3576 
Q 2541 3569 2628 3553 
L 2631 2963 
z
" transform="scale(0.015625)"/>
       </defs>
       <use xlink:href="#DejaVuSans-4d"/>
       <use xlink:href="#DejaVuSans-61" transform="translate(86.279297 0)"/>
       <use xlink:href="#DejaVuSans-72" transform="translate(147.558594 0)"/>
       <use xlink:href="#DejaVuSans-20" transform="translate(188.671875 0)"/>
       <use xlink:href="#DejaVuSans-30" transform="translate(220.458984 0)"/>
       <use xlink:href="#DejaVuSans-31" transform="translate(284.082031 0)"/>
      </g>
     </g>
    </g>
    <g id="xtick_5">
     <g id="line2d_9">
      <path d="M 543.024546 308.487352 
L 543.024546 29.077969 
" clip-path="url(#pb3ceb3d903)" style="fill: none; stroke: #30363d; stroke-width: 0.5; stroke-linecap: square"/>
     </g>
     <g id="line2d_10">
      <g>
       <use xlink:href="#m4ef87ccb12" x="543.024546" y="308.487352" style="fill: #8b949e; stroke: #8b949e; stroke-width: 0.8"/>
      </g>
     </g>
     <g id="text_5">
      <!-- Mar 15 -->
      <g style="fill: #8b949e" transform="translate(533.716756 342.450659) rotate(-45) scale(0.09 -0.09)">
       <use xlink:href="#DejaVuSans-4d"/>
       <use xlink:href="#DejaVuSans-61" transform="translate(86.279297 0)"/>
       <use xlink:href="#DejaVuSans-72" transform="translate(147.558594 0)"/>
       <use xlink:href="#DejaVuSans-20" transform="translate(188.671875 0)"/>
       <use xlink:href="#DejaVuSans-31" transform="translate(220.458984 0)"/>
       <use xlink:href="#DejaVuSans-35" transform="translate(284.082031 0)"/>
      </g>
     </g>
    </g>
    <g id="xtick_6">
     <g id="line2d_11">
      <path d="M 664.718934 308.487352 
L 664.718934 29.077969 
" clip-path="url(#pb3ceb3d903)" style="fill: none; stroke: #30363d; stroke-width: 0.5; stroke-linecap: square"/>
     </g>
     <g id="line2d_12">
      <g>
       <use xlink:href="#m4ef87ccb12" x="664.718934" y="308.487352" style="fill: #8b949e; stroke: #8b949e; stroke-width: 0.8"/>
      </g>
     </g>
     <g id="text_6">
      <!-- Apr 01 -->
      <g style="fill: #8b949e" transform="translate(655.90982 341.453307) rotate(-45) scale(0.09 -0.09)">
       <defs>
        <path id="DejaVuSans-41" d="M 2188 4044 
L 1331 1722 
L 3047 1722 
L 2188 4044 
z
M 1831 4666 
L 2547 4666 
L 4325 0 
L 3669 0 
L 3244 1197 
L 1141 1197 
L 716 0 
L 50 0 
L 1831 4666 
z
" transform="scale(0.015625)"/>
        <path id="DejaVuSans-70" d="M 1159 525 
L 1159 -1331 
L 581 -1331 
L 581 3500 
L 1159 3500 
L 1159 2969 
Q 1341 3281 1617 3432 
Q 1894 3584 2278 3584 
Q 2916 3584 3314 3078 
Q 3713 2572 3713 1747 
Q 3713 922 3314 415 
Q 2916 -91 2278 -91 
Q 1894 -91 1617 61 
Q 1341 213 1159 525 
z
M 3116 1747 
Q 3116 2381 2855 2742 
Q 2594 3103 2138 3103 
Q 1681 3103 1420 2742 
Q 1159 2381 1159 1747 
Q 1159 1113 1420 752 
Q 1681 391 2138 391 
Q 2594 391 2855 752 
Q 3116 1113 3116 1747 
z
" transform="scale(0.015625)"/>
       </defs>
       <use xlink:href="#DejaVuSans-41"/>
       <use xlink:href="#DejaVuSans-70" transform="translate(68.408203 0)"/>
       <use xlink:href="#DejaVuSans-72" transform="translate(131.884766 0)"/>
       <use xlink:href="#DejaVuSans-20" transform="translate(172.998047 0)"/>
       <use xlink:href="#DejaVuSans-30" transform="translate(204.785156 0)"/>
       <use xlink:href="#DejaVuSans-31" transform="translate(268.408203 0)"/>
      </g>
     </g>
    </g>
    <g id="xtick_7">
     <g id="line2d_13">
      <path d="M 764.937842 308.487352 
L 764.937842 29.077969 
" clip-path="url(#pb3ceb3d903)" style="fill: none; stroke: #30363d; stroke-width: 0.5; stroke-linecap: square"/>
     </g>
     <g id="line2d_14">
      <g>
       <use xlink:href="#m4ef87ccb12" x="764.937842" y="308.487352" style="fill: #8b949e; stroke: #8b949e; stroke-width: 0.8"/>
      </g>
     </g>
     <g id="text_7">
      <!-- Apr 15 -->
      <g style="fill: #8b949e" transform="translate(756.128728 341.453307) rotate(-45) scale(0.09 -0.09)">
       <use xlink:href="#DejaVuSans-41"/>
       <use xlink:href="#DejaVuSans-70" transform="translate(68.408203 0)"/>
       <use xlink:href="#DejaVuSans-72" transform="translate(131.884766 0)"/>
       <use xlink:href="#DejaVuSans-20" transform="translate(172.998047 0)"/>
       <use xlink:href="#DejaVuSans-31" transform="translate(204.785156 0)"/>
       <use xlink:href="#DejaVuSans-35" transform="translate(268.408203 0)"/>
      </g>
     </g>
    </g>
    <g id="xtick_8">
     <g id="line2d_15">
      <path d="M 879.473737 308.487352 
L 879.473737 29.077969 
" clip-path="url(#pb3ceb3d903)" style="fill: none; stroke: #30363d; stroke-width: 0.5; stroke-linecap: square"/>
     </g>
     <g id="line2d_16">
      <g>
       <use xlink:href="#m4ef87ccb12" x="879.473737" y="308.487352" style="fill: #8b949e; stroke: #8b949e; stroke-width: 0.8"/>
      </g>
     </g>
     <g id="text_8">
      <!-- May 01 -->
      <g style="fill: #8b949e" transform="translate(869.590705 343.601144) rotate(-45) scale(0.09 -0.09)">
       <defs>
        <path id="DejaVuSans-79" d="M 2059 -325 
Q 1816 -950 1584 -1140 
Q 1353 -1331 966 -1331 
L 506 -1331 
L 506 -850 
L 844 -850 
Q 1081 -850 1212 -737 
Q 1344 -625 1503 -206 
L 1606 56 
L 191 3500 
L 800 3500 
L 1894 763 
L 2988 3500 
L 3597 3500 
L 2059 -325 
z
" transform="scale(0.015625)"/>
       </defs>
       <use xlink:href="#DejaVuSans-4d"/>
       <use xlink:href="#DejaVuSans-61" transform="translate(86.279297 0)"/>
       <use xlink:href="#DejaVuSans-79" transform="translate(147.558594 0)"/>
       <use xlink:href="#DejaVuSans-20" transform="translate(206.738281 0)"/>
       <use xlink:href="#DejaVuSans-30" transform="translate(238.525391 0)"/>
       <use xlink:href="#DejaVuSans-31" transform="translate(302.148438 0)"/>
      </g>
     </g>
    </g>
   </g>
   <g id="matplotlib.axis_2">
    <g id="ytick_1">
     <g id="line2d_17">
      <path d="M 45.056875 277.643459 
L 921.186875 277.643459 
" clip-path="url(#pb3ceb3d903)" style="fill: none; stroke: #30363d; stroke-width: 0.5; stroke-linecap: square"/>
     </g>
     <g id="line2d_18">
      <defs>
       <path id="m84f5a4ff0c" d="M 0 0 
L -3.5 0 
" style="stroke: #58a6ff; stroke-width: 0.8"/>
      </defs>
      <g>
       <use xlink:href="#m84f5a4ff0c" x="45.056875" y="277.643459" style="fill: #58a6ff; stroke: #58a6ff; stroke-width: 0.8"/>
      </g>
     </g>
     <g id="text_9">
      <!-- 198 -->
      <g style="fill: #58a6ff" transform="translate(20.878125 281.062756) scale(0.09 -0.09)">
       <defs>
        <path id="DejaVuSans-39" d="M 703 97 
L 703 672 
Q 941 559 1184 500 
Q 1428 441 1663 441 
Q 2288 441 2617 861 
Q 2947 1281 2994 2138 
Q 2813 1869 2534 1725 
Q 2256 1581 1919 1581 
Q 1219 1581 811 2004 
Q 403 2428 403 3163 
Q 403 3881 828 4315 
Q 1253 4750 1959 4750 
Q 2769 4750 3195 4129 
Q 3622 3509 3622 2328 
Q 3622 1225 3098 567 
Q 2575 -91 1691 -91 
Q 1453 -91 1209 -44 
Q 966 3 703 97 
z
M 1959 2075 
Q 2384 2075 2632 2365 
Q 2881 2656 2881 3163 
Q 2881 3666 2632 3958 
Q 2384 4250 1959 4250 
Q 1534 4250 1286 3958 
Q 1038 3666 1038 3163 
Q 1038 2656 1286 2365 
Q 1534 2075 1959 2075 
z
" transform="scale(0.015625)"/>
        <path id="DejaVuSans-38" d="M 2034 2216 
Q 1584 2216 1326 1975 
Q 1069 1734 1069 1313 
Q 1069 891 1326 650 
Q 1584 409 2034 409 
Q 2484 409 2743 651 
Q 3003 894 3003 1313 
Q 3003 1734 2745 1975 
Q 2488 2216 2034 2216 
z
M 1403 2484 
Q 997 2584 770 2862 
Q 544 3141 544 3541 
Q 544 4100 942 4425 
Q 1341 4750 2034 4750 
Q 2731 4750 3128 4425 
Q 3525 4100 3525 3541 
Q 3525 3141 3298 2862 
Q 3072 2584 2669 2484 
Q 3125 2378 3379 2068 
Q 3634 1759 3634 1313 
Q 3634 634 3220 271 
Q 2806 -91 2034 -91 
Q 1263 -91 848 271 
Q 434 634 434 1313 
Q 434 1759 690 2068 
Q 947 2378 1403 2484 
z
M 1172 3481 
Q 1172 3119 1398 2916 
Q 1625 2713 2034 2713 
Q 2441 2713 2670 2916 
Q 2900 3119 2900 3481 
Q 2900 3844 2670 4047 
Q 2441 4250 2034 4250 
Q 1625 4250 1398 4047 
Q 1172 3844 1172 3481 
z
" transform="scale(0.015625)"/>
       </defs>
       <use xlink:href="#DejaVuSans-31"/>
       <use xlink:href="#DejaVuSans-39" transform="translate(63.623047 0)"/>
       <use xlink:href="#DejaVuSans-38" transform="translate(127.246094 0)"/>
      </g>
     </g>
    </g>
    <g id="ytick_2">
     <g id="line2d_19">
      <path d="M 45.056875 241.356526 
L 921.186875 241.356526 
" clip-path="url(#pb3ceb3d903)" style="fill: none; stroke: #30363d; stroke-width: 0.5; stroke-linecap: square"/>
     </g>
     <g id="line2d_20">
      <g>
       <use xlink:href="#m84f5a4ff0c" x="45.056875" y="241.356526" style="fill: #58a6ff; stroke: #58a6ff; stroke-width: 0.8"/>
      </g>
     </g>
     <g id="text_10">
      <!-- 200 -->
      <g style="fill: #58a6ff" transform="translate(20.878125 244.775823) scale(0.09 -0.09)">
       <defs>
        <path id="DejaVuSans-32" d="M 1228 531 
L 3431 531 
L 3431 0 
L 469 0 
L 469 531 
Q 828 903 1448 1529 
Q 2069 2156 2228 2338 
Q 2531 2678 2651 2914 
Q 2772 3150 2772 3378 
Q 2772 3750 2511 3984 
Q 2250 4219 1831 4219 
Q 1534 4219 1204 4116 
Q 875 4013 500 3803 
L 500 4441 
Q 881 4594 1212 4672 
Q 1544 4750 1819 4750 
Q 2544 4750 2975 4387 
Q 3406 4025 3406 3419 
Q 3406 3131 3298 2873 
Q 3191 2616 2906 2266 
Q 2828 2175 2409 1742 
Q 1991 1309 1228 531 
z
" transform="scale(0.015625)"/>
       </defs>
       <use xlink:href="#DejaVuSans-32"/>
       <use xlink:href="#DejaVuSans-30" transform="translate(63.623047 0)"/>
       <use xlink:href="#DejaVuSans-30" transform="translate(127.246094 0)"/>
      </g>
     </g>
    </g>
    <g id="ytick_3">
     <g id="line2d_21">
      <path d="M 45.056875 205.069593 
L 921.186875 205.069593 
" clip-path="url(#pb3ceb3d903)" style="fill: none; stroke: #30363d; stroke-width: 0.5; stroke-linecap: square"/>
     </g>
     <g id="line2d_22">
      <g>
       <use xlink:href="#m84f5a4ff0c" x="45.056875" y="205.069593" style="fill: #58a6ff; stroke: #58a6ff; stroke-width: 0.8"/>
      </g>
     </g>
     <g id="text_11">
      <!-- 202 -->
      <g style="fill: #58a6ff" transform="translate(20.878125 208.48889) scale(0.09 -0.09)">
       <use xlink:href="#DejaVuSans-32"/>
       <use xlink:href="#DejaVuSans-30" transform="translate(63.623047 0)"/>
       <use xlink:href="#DejaVuSans-32" transform="translate(127.246094 0)"/>
      </g>
     </g>
    </g>
    <g id="ytick_4">
     <g id="line2d_23">
      <path d="M 45.056875 168.78266 
L 921.186875 168.78266 
" clip-path="url(#pb3ceb3d903)" style="fill: none; stroke: #30363d; stroke-width: 0.5; stroke-linecap: square"/>
     </g>
     <g id="line2d_24">
      <g>
       <use xlink:href="#m84f5a4ff0c" x="45.056875" y="168.78266" style="fill: #58a6ff; stroke: #58a6ff; stroke-width: 0.8"/>
      </g>
     </g>
     <g id="text_12">
      <!-- 204 -->
      <g style="fill: #58a6ff" transform="translate(20.878125 172.201957) scale(0.09 -0.09)">
       <defs>
        <path id="DejaVuSans-34" d="M 2419 4116 
L 825 1625 
L 2419 1625 
L 2419 4116 
z
M 2253 4666 
L 3047 4666 
L 3047 1625 
L 3713 1625 
L 3713 1100 
L 3047 1100 
L 3047 0 
L 2419 0 
L 2419 1100 
L 313 1100 
L 313 1709 
L 2253 4666 
z
" transform="scale(0.015625)"/>
       </defs>
       <use xlink:href="#DejaVuSans-32"/>
       <use xlink:href="#DejaVuSans-30" transform="translate(63.623047 0)"/>
       <use xlink:href="#DejaVuSans-34" transform="translate(127.246094 0)"/>
      </g>
     </g>
    </g>
    <g id="ytick_5">
     <g id="line2d_25">
      <path d="M 45.056875 132.495727 
L 921.186875 132.495727 
" clip-path="url(#pb3ceb3d903)" style="fill: none; stroke: #30363d; stroke-width: 0.5; stroke-linecap: square"/>
     </g>
     <g id="line2d_26">
      <g>
       <use xlink:href="#m84f5a4ff0c" x="45.056875" y="132.495727" style="fill: #58a6ff; stroke: #58a6ff; stroke-width: 0.8"/>
      </g>
     </g>
     <g id="text_13">
      <!-- 206 -->
      <g style="fill: #58a6ff" transform="translate(20.878125 135.915024) scale(0.09 -0.09)">
       <defs>
        <path id="DejaVuSans-36" d="M 2113 2584 
Q 1688 2584 1439 2293 
Q 1191 2003 1191 1497 
Q 1191 994 1439 701 
Q 1688 409 2113 409 
Q 2538 409 2786 701 
Q 3034 994 3034 1497 
Q 3034 2003 2786 2293 
Q 2538 2584 2113 2584 
z
M 3366 4563 
L 3366 3988 
Q 3128 4100 2886 4159 
Q 2644 4219 2406 4219 
Q 1781 4219 1451 3797 
Q 1122 3375 1075 2522 
Q 1259 2794 1537 2939 
Q 1816 3084 2150 3084 
Q 2853 3084 3261 2657 
Q 3669 2231 3669 1497 
Q 3669 778 3244 343 
Q 2819 -91 2113 -91 
Q 1303 -91 875 529 
Q 447 1150 447 2328 
Q 447 3434 972 4092 
Q 1497 4750 2381 4750 
Q 2619 4750 2861 4703 
Q 3103 4656 3366 4563 
z
" transform="scale(0.015625)"/>
       </defs>
       <use xlink:href="#DejaVuSans-32"/>
       <use xlink:href="#DejaVuSans-30" transform="translate(63.623047 0)"/>
       <use xlink:href="#DejaVuSans-36" transform="translate(127.246094 0)"/>
      </g>
     </g>
    </g>
    <g id="ytick_6">
     <g id="line2d_27">
      <path d="M 45.056875 96.208795 
L 921.186875 96.208795 
" clip-path="url(#pb3ceb3d903)" style="fill: none; stroke: #30363d; stroke-width: 0.5; stroke-linecap: square"/>
     </g>
     <g id="line2d_28">
      <g>
       <use xlink:href="#m84f5a4ff0c" x="45.056875" y="96.208795" style="fill: #58a6ff; stroke: #58a6ff; stroke-width: 0.8"/>
      </g>
     </g>
     <g id="text_14">
      <!-- 208 -->
      <g style="fill: #58a6ff" transform="translate(20.878125 99.628091) scale(0.09 -0.09)">
       <use xlink:href="#DejaVuSans-32"/>
       <use xlink:href="#DejaVuSans-30" transform="translate(63.623047 0)"/>
       <use xlink:href="#DejaVuSans-38" transform="translate(127.246094 0)"/>
      </g>
     </g>
    </g>
    <g id="ytick_7">
     <g id="line2d_29">
      <path d="M 45.056875 59.921862 
L 921.186875 59.921862 
" clip-path="url(#pb3ceb3d903)" style="fill: none; stroke: #30363d; stroke-width: 0.5; stroke-linecap: square"/>
     </g>
     <g id="line2d_30">
      <g>
       <use xlink:href="#m84f5a4ff0c" x="45.056875" y="59.921862" style="fill: #58a6ff; stroke: #58a6ff; stroke-width: 0.8"/>
      </g>
     </g>
     <g id="text_15">
      <!-- 210 -->
      <g style="fill: #58a6ff" transform="translate(20.878125 63.341159) scale(0.09 -0.09)">
       <use xlink:href="#DejaVuSans-32"/>
       <use xlink:href="#DejaVuSans-31" transform="translate(63.623047 0)"/>
       <use xlink:href="#DejaVuSans-30" transform="translate(127.246094 0)"/>
      </g>
     </g>
    </g>
    <g id="text_16">
     <!-- Weight (lbs) -->
     <g style="fill: #58a6ff" transform="translate(14.798438 198.860004) rotate(-90) scale(0.1 -0.1)">
      <defs>
       <path id="DejaVuSans-57" d="M 213 4666 
L 850 4666 
L 1831 722 
L 2809 4666 
L 3519 4666 
L 4500 722 
L 5478 4666 
L 6119 4666 
L 4947 0 
L 4153 0 
L 3169 4050 
L 2175 0 
L 1381 0 
L 213 4666 
z
" transform="scale(0.015625)"/>
       <path id="DejaVuSans-69" d="M 603 3500 
L 1178 3500 
L 1178 0 
L 603 0 
L 603 3500 
z
M 603 4863 
L 1178 4863 
L 1178 4134 
L 603 4134 
L 603 4863 
z
" transform="scale(0.015625)"/>
       <path id="DejaVuSans-67" d="M 2906 1791 
Q 2906 2416 2648 2759 
Q 2391 3103 1925 3103 
Q 1463 3103 1205 2759 
Q 947 2416 947 1791 
Q 947 1169 1205 825 
Q 1463 481 1925 481 
Q 2391 481 2648 825 
Q 2906 1169 2906 1791 
z
M 3481 434 
Q 3481 -459 3084 -895 
Q 2688 -1331 1869 -1331 
Q 1566 -1331 1297 -1286 
Q 1028 -1241 775 -1147 
L 775 -588 
Q 1028 -725 1275 -790 
Q 1522 -856 1778 -856 
Q 2344 -856 2625 -561 
Q 2906 -266 2906 331 
L 2906 616 
Q 2728 306 2450 153 
Q 2172 0 1784 0 
Q 1141 0 747 490 
Q 353 981 353 1791 
Q 353 2603 747 3093 
Q 1141 3584 1784 3584 
Q 2172 3584 2450 3431 
Q 2728 3278 2906 2969 
L 2906 3500 
L 3481 3500 
L 3481 434 
z
" transform="scale(0.015625)"/>
       <path id="DejaVuSans-68" d="M 3513 2113 
L 3513 0 
L 2938 0 
L 2938 2094 
Q 2938 2591 2744 2837 
Q 2550 3084 2163 3084 
Q 1697 3084 1428 2787 
Q 1159 2491 1159 1978 
L 1159 0 
L 581 0 
L 581 4863 
L 1159 4863 
L 1159 2956 
Q 1366 3272 1645 3428 
Q 1925 3584 2291 3584 
Q 2894 3584 3203 3211 
Q 3513 2838 3513 2113 
z
" transform="scale(0.015625)"/>
       <path id="DejaVuSans-74" d="M 1172 4494 
L 1172 3500 
L 2356 3500 
L 2356 3053 
L 1172 3053 
L 1172 1153 
Q 1172 725 1289 603 
Q 1406 481 1766 481 
L 2356 481 
L 2356 0 
L 1766 0 
Q 1100 0 847 248 
Q 594 497 594 1153 
L 594 3053 
L 172 3053 
L 172 3500 
L 594 3500 
L 594 4494 
L 1172 4494 
z
" transform="scale(0.015625)"/>
       <path id="DejaVuSans-28" d="M 1984 4856 
Q 1566 4138 1362 3434 
Q 1159 2731 1159 2009 
Q 1159 1288 1364 580 
Q 1569 -128 1984 -844 
L 1484 -844 
Q 1016 -109 783 600 
Q 550 1309 550 2009 
Q 550 2706 781 3412 
Q 1013 4119 1484 4856 
L 1984 4856 
z
" transform="scale(0.015625)"/>
       <path id="DejaVuSans-6c" d="M 603 4863 
L 1178 4863 
L 1178 0 
L 603 0 
L 603 4863 
z
" transform="scale(0.015625)"/>
       <path id="DejaVuSans-73" d="M 2834 3397 
L 2834 2853 
Q 2591 2978 2328 3040 
Q 2066 3103 1784 3103 
Q 1356 3103 1142 2972 
Q 928 2841 928 2578 
Q 928 2378 1081 2264 
Q 1234 2150 1697 2047 
L 1894 2003 
Q 2506 1872 2764 1633 
Q 3022 1394 3022 966 
Q 3022 478 2636 193 
Q 2250 -91 1575 -91 
Q 1294 -91 989 -36 
Q 684 19 347 128 
L 347 722 
Q 666 556 975 473 
Q 1284 391 1588 391 
Q 1994 391 2212 530 
Q 2431 669 2431 922 
Q 2431 1156 2273 1281 
Q 2116 1406 1581 1522 
L 1381 1569 
Q 847 1681 609 1914 
Q 372 2147 372 2553 
Q 372 3047 722 3315 
Q 1072 3584 1716 3584 
Q 2034 3584 2315 3537 
Q 2597 3491 2834 3397 
z
" transform="scale(0.015625)"/>
       <path id="DejaVuSans-29" d="M 513 4856 
L 1013 4856 
Q 1481 4119 1714 3412 
Q 1947 2706 1947 2009 
Q 1947 1309 1714 600 
Q 1481 -109 1013 -844 
L 513 -844 
Q 928 -128 1133 580 
Q 1338 1288 1338 2009 
Q 1338 2731 1133 3434 
Q 928 4138 513 4856 
z
" transform="scale(0.015625)"/>
      </defs>
      <use xlink:href="#DejaVuSans-57"/>
      <use xlink:href="#DejaVuSans-65" transform="translate(93.001953 0)"/>
      <use xlink:href="#DejaVuSans-69" transform="translate(154.525391 0)"/>
      <use xlink:href="#DejaVuSans-67" transform="translate(182.308594 0)"/>
      <use xlink:href="#DejaVuSans-68" transform="translate(245.785156 0)"/>
      <use xlink:href="#DejaVuSans-74" transform="translate(309.164062 0)"/>
      <use xlink:href="#DejaVuSans-20" transform="translate(348.373047 0)"/>
      <use xlink:href="#DejaVuSans-28" transform="translate(380.160156 0)"/>
      <use xlink:href="#DejaVuSans-6c" transform="translate(419.173828 0)"/>
      <use xlink:href="#DejaVuSans-62" transform="translate(446.957031 0)"/>
      <use xlink:href="#DejaVuSans-73" transform="translate(510.433594 0)"/>
      <use xlink:href="#DejaVuSans-29" transform="translate(562.533203 0)"/>
     </g>
    </g>
   </g>
   <g id="line2d_31">
    <path d="M 84.880966 85.197696 
L 881.362784 226.186088 
" clip-path="url(#pb3ceb3d903)" style="fill: none; stroke-dasharray: 5.55,2.4; stroke-dashoffset: 0; stroke: #388bfd; stroke-opacity: 0.75; stroke-width: 1.5"/>
   </g>
   <g id="patch_3">
    <path d="M 45.056875 308.487352 
L 45.056875 29.077969 
" style="fill: none; stroke: #30363d; stroke-width: 0.8; stroke-linejoin: miter; stroke-linecap: square"/>
   </g>
   <g id="patch_4">
    <path d="M 921.186875 308.487352 
L 921.186875 29.077969 
" style="fill: none; stroke: #30363d; stroke-width: 0.8; stroke-linejoin: miter; stroke-linecap: square"/>
   </g>
   <g id="patch_5">
    <path d="M 45.056875 308.487352 
L 921.186875 308.487352 
" style="fill: none; stroke: #30363d; stroke-width: 0.8; stroke-linejoin: miter; stroke-linecap: square"/>
   </g>
   <g id="patch_6">
    <path d="M 45.056875 29.077969 
L 921.186875 29.077969 
" style="fill: none; stroke: #30363d; stroke-width: 0.8; stroke-linejoin: miter; stroke-linecap: square"/>
   </g>
   <g id="line2d_32">
    <path d="M 84.880966 168.78266 
L 134.99042 132.495727 
L 192.258367 186.926127 
L 242.367821 168.78266 
L 285.318782 205.069593 
L 392.696184 168.78266 
L 442.805638 114.352261 
L 449.964131 41.778395 
L 459.130151 41.778395 
L 466.170082 114.352261 
L 480.49262 132.495727 
L 488.359423 114.352261 
L 495.525291 78.065328 
L 501.970254 114.352261 
L 509.102318 114.352261 
L 516.275642 114.352261 
L 523.419802 96.208795 
L 530.639772 132.495727 
L 538.433416 168.78266 
L 545.940969 186.926127 
L 552.061812 205.069593 
L 559.235468 168.78266 
L 566.375651 168.78266 
L 573.538121 150.639194 
L 580.717411 150.639194 
L 588.657539 150.639194 
L 596.007091 150.639194 
L 602.182617 114.352261 
L 609.34575 132.495727 
L 616.501675 168.78266 
L 623.6663 168.78266 
L 630.827942 205.069593 
L 638.636085 241.356526 
L 645.84487 168.78266 
L 652.301351 186.926127 
L 659.510964 223.21306 
L 666.627949 186.926127 
L 673.765315 205.069593 
L 681.227795 223.21306 
L 688.754653 241.356526 
L 696.23851 186.926127 
L 702.41271 168.78266 
L 709.578992 205.069593 
L 716.726549 186.926127 
L 723.886699 223.21306 
L 731.087614 205.069593 
L 738.89294 241.356526 
L 746.313497 259.499993 
L 752.513713 205.069593 
L 759.662513 205.069593 
L 766.825978 241.356526 
L 773.997148 205.069593 
L 781.162932 223.21306 
L 789.274483 241.356526 
L 796.324605 132.495727 
L 809.816211 168.78266 
L 816.939906 223.21306 
L 824.096411 223.21306 
L 831.265758 223.21306 
L 839.228671 241.356526 
L 846.373742 223.21306 
L 852.73229 205.069593 
L 859.892026 241.356526 
L 867.02641 259.499993 
L 874.188631 277.643459 
L 881.362784 295.786925 
" clip-path="url(#pb3ceb3d903)" style="fill: none; stroke: #58a6ff; stroke-width: 2; stroke-linecap: square"/>
    <defs>
     <path id="m1d6ad00ae4" d="M 0 2 
C 0.530406 2 1.03916 1.789267 1.414214 1.414214 
C 1.789267 1.03916 2 0.530406 2 0 
C 2 -0.530406 1.789267 -1.03916 1.414214 -1.414214 
C 1.03916 -1.789267 0.530406 -2 0 -2 
C -0.530406 -2 -1.03916 -1.789267 -1.414214 -1.414214 
C -1.789267 -1.03916 -2 -0.530406 -2 0 
C -2 0.530406 -1.789267 1.03916 -1.414214 1.414214 
C -1.03916 1.789267 -0.530406 2 0 2 
z
" style="stroke: #58a6ff"/>
    </defs>
    <g clip-path="url(#pb3ceb3d903)">
     <use xlink:href="#m1d6ad00ae4" x="84.880966" y="168.78266" style="fill: #58a6ff; stroke: #58a6ff"/>
     <use xlink:href="#m1d6ad00ae4" x="134.99042" y="132.495727" style="fill: #58a6ff; stroke: #58a6ff"/>
     <use xlink:href="#m1d6ad00ae4" x="192.258367" y="186.926127" style="fill: #58a6ff; stroke: #58a6ff"/>
     <use xlink:href="#m1d6ad00ae4" x="242.367821" y="168.78266" style="fill: #58a6ff; stroke: #58a6ff"/>
     <use xlink:href="#m1d6ad00ae4" x="285.318782" y="205.069593" style="fill: #58a6ff; stroke: #58a6ff"/>
     <use xlink:href="#m1d6ad00ae4" x="392.696184" y="168.78266" style="fill: #58a6ff; stroke: #58a6ff"/>
     <use xlink:href="#m1d6ad00ae4" x="442.805638" y="114.352261" style="fill: #58a6ff; stroke: #58a6ff"/>
     <use xlink:href="#m1d6ad00ae4" x="449.964131" y="41.778395" style="fill: #58a6ff; stroke: #58a6ff"/>
     <use xlink:href="#m1d6ad00ae4" x="459.130151" y="41.778395" style="fill: #58a6ff; stroke: #58a6ff"/>
     <use xlink:href="#m1d6ad00ae4" x="466.170082" y="114.352261" style="fill: #58a6ff; stroke: #58a6ff"/>
     <use xlink:href="#m1d6ad00ae4" x="480.49262" y="132.495727" style="fill: #58a6ff; stroke: #58a6ff"/>
     <use xlink:href="#m1d6ad00ae4" x="488.359423" y="114.352261" style="fill: #58a6ff; stroke: #58a6ff"/>
     <use xlink:href="#m1d6ad00ae4" x="495.525291" y="78.065328" style="fill: #58a6ff; stroke: #58a6ff"/>
     <use xlink:href="#m1d6ad00ae4" x="501.970254" y="114.352261" style="fill: #58a6ff; stroke: #58a6ff"/>
     <use xlink:href="#m1d6ad00ae4" x="509.102318" y="114.352261" style="fill: #58a6ff; stroke: #58a6ff"/>
     <use xlink:href="#m1d6ad00ae4" x="516.275642" y="114.352261" style="fill: #58a6ff; stroke: #58a6ff"/>
     <use xlink:href="#m1d6ad00ae4" x="523.419802" y="96.208795" style="fill: #58a6ff; stroke: #58a6ff"/>
     <use xlink:href="#m1d6ad00ae4" x="530.639772" y="132.495727" style="fill: #58a6ff; stroke: #58a6ff"/>
     <use xlink:href="#m1d6ad00ae4" x="538.433416" y="168.78266" style="fill: #58a6ff; stroke: #58a6ff"/>
     <use xlink:href="#m1d6ad00ae4" x="545.940969" y="186.926127" style="fill: #58a6ff; stroke: #58a6ff"/>
     <use xlink:href="#m1d6ad00ae4" x="552.061812" y="205.069593" style="fill: #58a6ff; stroke: #58a6ff"/>
     <use xlink:href="#m1d6ad00ae4" x="559.235468" y="168.78266" style="fill: #58a6ff; stroke: #58a6ff"/>
     <use xlink:href="#m1d6ad00ae4" x="566.375651" y="168.78266" style="fill: #58a6ff; stroke: #58a6ff"/>
     <use xlink:href="#m1d6ad00ae4" x="573.538121" y="150.639194" style="fill: #58a6ff; stroke: #58a6ff"/>
     <use xlink:href="#m1d6ad00ae4" x="580.717411" y="150.639194" style="fill: #58a6ff; stroke: #58a6ff"/>
     <use xlink:href="#m1d6ad00ae4" x="588.657539" y="150.639194" style="fill: #58a6ff; stroke: #58a6ff"/>
     <use xlink:href="#m1d6ad00ae4" x="596.007091" y="150.639194" style="fill: #58a6ff; stroke: #58a6ff"/>
     <use xlink:href="#m1d6ad00ae4" x="602.182617" y="114.352261" style="fill: #58a6ff; stroke: #58a6ff"/>
     <use xlink:href="#m1d6ad00ae4" x="609.34575" y="132.495727" style="fill: #58a6ff; stroke: #58a6ff"/>
     <use xlink:href="#m1d6ad00ae4" x="616.501675" y="168.78266" style="fill: #58a6ff; stroke: #58a6ff"/>
     <use xlink:href="#m1d6ad00ae4" x="623.6663" y="168.78266" style="fill: #58a6ff; stroke: #58a6ff"/>
     <use xlink:href="#m1d6ad00ae4" x="630.827942" y="205.069593" style="fill: #58a6ff; stroke: #58a6ff"/>
     <use xlink:href="#m1d6ad00ae4" x="638.636085" y="241.356526" style="fill: #58a6ff; stroke: #58a6ff"/>
     <use xlink:href="#m1d6ad00ae4" x="645.84487" y="168.78266" style="fill: #58a6ff; stroke: #58a6ff"/>
     <use xlink:href="#m1d6ad00ae4" x="652.301351" y="186.926127" style="fill: #58a6ff; stroke: #58a6ff"/>
     <use xlink:href="#m1d6ad00ae4" x="659.510964" y="223.21306" style="fill: #58a6ff; stroke: #58a6ff"/>
     <use xlink:href="#m1d6ad00ae4" x="666.627949" y="186.926127" style="fill: #58a6ff; stroke: #58a6ff"/>
     <use xlink:href="#m1d6ad00ae4" x="673.765315" y="205.069593" style="fill: #58a6ff; stroke: #58a6ff"/>
     <use xlink:href="#m1d6ad00ae4" x="681.227795" y="223.21306" style="fill: #58a6ff; stroke: #58a6ff"/>
     <use xlink:href="#m1d6ad00ae4" x="688.754653" y="241.356526" style="fill: #58a6ff; stroke: #58a6ff"/>
     <use xlink:href="#m1d6ad00ae4" x="696.23851" y="186.926127" style="fill: #58a6ff; stroke: #58a6ff"/>
     <use xlink:href="#m1d6ad00ae4" x="702.41271" y="168.78266" style="fill: #58a6ff; stroke: #58a6ff"/>
     <use xlink:href="#m1d6ad00ae4" x="709.578992" y="205.069593" style="fill: #58a6ff; stroke: #58a6ff"/>
     <use xlink:href="#m1d6ad00ae4" x="716.726549" y="186.926127" style="fill: #58a6ff; stroke: #58a6ff"/>
     <use xlink:href="#m1d6ad00ae4" x="723.886699" y="223.21306" style="fill: #58a6ff; stroke: #58a6ff"/>
     <use xlink:href="#m1d6ad00ae4" x="731.087614" y="205.069593" style="fill: #58a6ff; stroke: #58a6ff"/>
     <use xlink:href="#m1d6ad00ae4" x="738.89294" y="241.356526" style="fill: #58a6ff; stroke: #58a6ff"/>
     <use xlink:href="#m1d6ad00ae4" x="746.313497" y="259.499993" style="fill: #58a6ff; stroke: #58a6ff"/>
     <use xlink:href="#m1d6ad00ae4" x="752.513713" y="205.069593" style="fill: #58a6ff; stroke: #58a6ff"/>
     <use xlink:href="#m1d6ad00ae4" x="759.662513" y="205.069593" style="fill: #58a6ff; stroke: #58a6ff"/>
     <use xlink:href="#m1d6ad00ae4" x="766.825978" y="241.356526" style="fill: #58a6ff; stroke: #58a6ff"/>
     <use xlink:href="#m1d6ad00ae4" x="773.997148" y="205.069593" style="fill: #58a6ff; stroke: #58a6ff"/>
     <use xlink:href="#m1d6ad00ae4" x="781.162932" y="223.21306" style="fill: #58a6ff; stroke: #58a6ff"/>
     <use xlink:href="#m1d6ad00ae4" x="789.274483" y="241.356526" style="fill: #58a6ff; stroke: #58a6ff"/>
     <use xlink:href="#m1d6ad00ae4" x="796.324605" y="132.495727" style="fill: #58a6ff; stroke: #58a6ff"/>
     <use xlink:href="#m1d6ad00ae4" x="809.816211" y="168.78266" style="fill: #58a6ff; stroke: #58a6ff"/>
     <use xlink:href="#m1d6ad00ae4" x="816.939906" y="223.21306" style="fill: #58a6ff; stroke: #58a6ff"/>
     <use xlink:href="#m1d6ad00ae4" x="824.096411" y="223.21306" style="fill: #58a6ff; stroke: #58a6ff"/>
     <use xlink:href="#m1d6ad00ae4" x="831.265758" y="223.21306" style="fill: #58a6ff; stroke: #58a6ff"/>
     <use xlink:href="#m1d6ad00ae4" x="839.228671" y="241.356526" style="fill: #58a6ff; stroke: #58a6ff"/>
     <use xlink:href="#m1d6ad00ae4" x="846.373742" y="223.21306" style="fill: #58a6ff; stroke: #58a6ff"/>
     <use xlink:href="#m1d6ad00ae4" x="852.73229" y="205.069593" style="fill: #58a6ff; stroke: #58a6ff"/>
     <use xlink:href="#m1d6ad00ae4" x="859.892026" y="241.356526" style="fill: #58a6ff; stroke: #58a6ff"/>
     <use xlink:href="#m1d6ad00ae4" x="867.02641" y="259.499993" style="fill: #58a6ff; stroke: #58a6ff"/>
     <use xlink:href="#m1d6ad00ae4" x="874.188631" y="277.643459" style="fill: #58a6ff; stroke: #58a6ff"/>
     <use xlink:href="#m1d6ad00ae4" x="881.362784" y="295.786925" style="fill: #58a6ff; stroke: #58a6ff"/>
    </g>
   </g>
   <g id="text_17">
    <!-- Weight -->
    <g style="fill: #e6edf3" transform="translate(457.164531 17.077969) scale(0.13 -0.13)">
     <defs>
      <path id="DejaVuSans-Bold-57" d="M 191 4666 
L 1344 4666 
L 2150 1275 
L 2950 4666 
L 4109 4666 
L 4909 1275 
L 5716 4666 
L 6859 4666 
L 5759 0 
L 4372 0 
L 3525 3547 
L 2688 0 
L 1300 0 
L 191 4666 
z
" transform="scale(0.015625)"/>
      <path id="DejaVuSans-Bold-65" d="M 4031 1759 
L 4031 1441 
L 1416 1441 
Q 1456 1047 1700 850 
Q 1944 653 2381 653 
Q 2734 653 3104 758 
Q 3475 863 3866 1075 
L 3866 213 
Q 3469 63 3072 -14 
Q 2675 -91 2278 -91 
Q 1328 -91 801 392 
Q 275 875 275 1747 
Q 275 2603 792 3093 
Q 1309 3584 2216 3584 
Q 3041 3584 3536 3087 
Q 4031 2591 4031 1759 
z
M 2881 2131 
Q 2881 2450 2695 2645 
Q 2509 2841 2209 2841 
Q 1884 2841 1681 2658 
Q 1478 2475 1428 2131 
L 2881 2131 
z
" transform="scale(0.015625)"/>
      <path id="DejaVuSans-Bold-69" d="M 538 3500 
L 1656 3500 
L 1656 0 
L 538 0 
L 538 3500 
z
M 538 4863 
L 1656 4863 
L 1656 3950 
L 538 3950 
L 538 4863 
z
" transform="scale(0.015625)"/>
      <path id="DejaVuSans-Bold-67" d="M 2919 594 
Q 2688 288 2409 144 
Q 2131 0 1766 0 
Q 1125 0 706 504 
Q 288 1009 288 1791 
Q 288 2575 706 3076 
Q 1125 3578 1766 3578 
Q 2131 3578 2409 3434 
Q 2688 3291 2919 2981 
L 2919 3500 
L 4044 3500 
L 4044 353 
Q 4044 -491 3511 -936 
Q 2978 -1381 1966 -1381 
Q 1638 -1381 1331 -1331 
Q 1025 -1281 716 -1178 
L 716 -306 
Q 1009 -475 1290 -558 
Q 1572 -641 1856 -641 
Q 2406 -641 2662 -400 
Q 2919 -159 2919 353 
L 2919 594 
z
M 2181 2772 
Q 1834 2772 1640 2515 
Q 1447 2259 1447 1791 
Q 1447 1309 1634 1061 
Q 1822 813 2181 813 
Q 2531 813 2725 1069 
Q 2919 1325 2919 1791 
Q 2919 2259 2725 2515 
Q 2531 2772 2181 2772 
z
" transform="scale(0.015625)"/>
      <path id="DejaVuSans-Bold-68" d="M 4056 2131 
L 4056 0 
L 2931 0 
L 2931 347 
L 2931 1625 
Q 2931 2084 2911 2256 
Q 2891 2428 2841 2509 
Q 2775 2619 2662 2680 
Q 2550 2741 2406 2741 
Q 2056 2741 1856 2470 
Q 1656 2200 1656 1722 
L 1656 0 
L 538 0 
L 538 4863 
L 1656 4863 
L 1656 2988 
Q 1909 3294 2193 3439 
Q 2478 3584 2822 3584 
Q 3428 3584 3742 3212 
Q 4056 2841 4056 2131 
z
" transform="scale(0.015625)"/>
      <path id="DejaVuSans-Bold-74" d="M 1759 4494 
L 1759 3500 
L 2913 3500 
L 2913 2700 
L 1759 2700 
L 1759 1216 
Q 1759 972 1856 886 
Q 1953 800 2241 800 
L 2816 800 
L 2816 0 
L 1856 0 
Q 1194 0 917 276 
Q 641 553 641 1216 
L 641 2700 
L 84 2700 
L 84 3500 
L 641 3500 
L 641 4494 
L 1759 4494 
z
" transform="scale(0.015625)"/>
     </defs>
     <use xlink:href="#DejaVuSans-Bold-57"/>
     <use xlink:href="#DejaVuSans-Bold-65" transform="translate(106.677734 0)"/>
     <use xlink:href="#DejaVuSans-Bold-69" transform="translate(174.5 0)"/>
     <use xlink:href="#DejaVuSans-Bold-67" transform="translate(208.777344 0)"/>
     <use xlink:href="#DejaVuSans-Bold-68" transform="translate(280.359375 0)"/>
     <use xlink:href="#DejaVuSans-Bold-74" transform="translate(351.550781 0)"/>
    </g>
   </g>
   <g id="legend_1">
    <g id="patch_7">
     <path d="M 805.106562 62.698594 
L 914.886875 62.698594 
Q 916.686875 62.698594 916.686875 60.898594 
L 916.686875 35.377969 
Q 916.686875 33.577969 914.886875 33.577969 
L 805.106562 33.577969 
Q 803.306563 33.577969 803.306563 35.377969 
L 803.306563 60.898594 
Q 803.306563 62.698594 805.106562 62.698594 
z
" style="fill: #161b22; opacity: 0.8; stroke: #30363d; stroke-linejoin: miter"/>
    </g>
    <g id="line2d_33">
     <path d="M 806.906563 40.866562 
L 815.906563 40.866562 
L 824.906563 40.866562 
" style="fill: none; stroke: #58a6ff; stroke-width: 2; stroke-linecap: square"/>
     <g>
      <use xlink:href="#m1d6ad00ae4" x="815.906563" y="40.866562" style="fill: #58a6ff; stroke: #58a6ff"/>
     </g>
    </g>
    <g id="text_18">
     <!-- Weight (lbs) -->
     <g style="fill: #e6edf3" transform="translate(832.106563 44.016562) scale(0.09 -0.09)">
      <use xlink:href="#DejaVuSans-57"/>
      <use xlink:href="#DejaVuSans-65" transform="translate(93.001953 0)"/>
      <use xlink:href="#DejaVuSans-69" transform="translate(154.525391 0)"/>
      <use xlink:href="#DejaVuSans-67" transform="translate(182.308594 0)"/>
      <use xlink:href="#DejaVuSans-68" transform="translate(245.785156 0)"/>
      <use xlink:href="#DejaVuSans-74" transform="translate(309.164062 0)"/>
      <use xlink:href="#DejaVuSans-20" transform="translate(348.373047 0)"/>
      <use xlink:href="#DejaVuSans-28" transform="translate(380.160156 0)"/>
      <use xlink:href="#DejaVuSans-6c" transform="translate(419.173828 0)"/>
      <use xlink:href="#DejaVuSans-62" transform="translate(446.957031 0)"/>
      <use xlink:href="#DejaVuSans-73" transform="translate(510.433594 0)"/>
      <use xlink:href="#DejaVuSans-29" transform="translate(562.533203 0)"/>
     </g>
    </g>
    <g id="line2d_34">
     <path d="M 806.906563 54.076875 
L 815.906563 54.076875 
L 824.906563 54.076875 
" style="fill: none; stroke-dasharray: 5.55,2.4; stroke-dashoffset: 0; stroke: #388bfd; stroke-opacity: 0.75; stroke-width: 1.5"/>
    </g>
    <g id="text_19">
     <!-- Weight (lbs) trend -->
     <g style="fill: #e6edf3" transform="translate(832.106563 57.226875) scale(0.09 -0.09)">
      <defs>
       <path id="DejaVuSans-64" d="M 2906 2969 
L 2906 4863 
L 3481 4863 
L 3481 0 
L 2906 0 
L 2906 525 
Q 2725 213 2448 61 
Q 2172 -91 1784 -91 
Q 1150 -91 751 415 
Q 353 922 353 1747 
Q 353 2572 751 3078 
Q 1150 3584 1784 3584 
Q 2172 3584 2448 3432 
Q 2725 3281 2906 2969 
z
M 947 1747 
Q 947 1113 1208 752 
Q 1469 391 1925 391 
Q 2381 391 2643 752 
Q 2906 1113 2906 1747 
Q 2906 2381 2643 2742 
Q 2381 3103 1925 3103 
Q 1469 3103 1208 2742 
Q 947 2381 947 1747 
z
" transform="scale(0.015625)"/>
      </defs>
      <use xlink:href="#DejaVuSans-57"/>
      <use xlink:href="#DejaVuSans-65" transform="translate(93.001953 0)"/>
      <use xlink:href="#DejaVuSans-69" transform="translate(154.525391 0)"/>
      <use xlink:href="#DejaVuSans-67" transform="translate(182.308594 0)"/>
      <use xlink:href="#DejaVuSans-68" transform="translate(245.785156 0)"/>
      <use xlink:href="#DejaVuSans-74" transform="translate(309.164062 0)"/>
      <use xlink:href="#DejaVuSans-20" transform="translate(348.373047 0)"/>
      <use xlink:href="#DejaVuSans-28" transform="translate(380.160156 0)"/>
      <use xlink:href="#DejaVuSans-6c" transform="translate(419.173828 0)"/>
      <use xlink:href="#DejaVuSans-62" transform="translate(446.957031 0)"/>
      <use xlink:href="#DejaVuSans-73" transform="translate(510.433594 0)"/>
      <use xlink:href="#DejaVuSans-29" transform="translate(562.533203 0)"/>
      <use xlink:href="#DejaVuSans-20" transform="translate(601.546875 0)"/>
      <use xlink:href="#DejaVuSans-74" transform="translate(633.333984 0)"/>
      <use xlink:href="#DejaVuSans-72" transform="translate(672.542969 0)"/>
      <use xlink:href="#DejaVuSans-65" transform="translate(711.40625 0)"/>
      <use xlink:href="#DejaVuSans-6e" transform="translate(772.929688 0)"/>
      <use xlink:href="#DejaVuSans-64" transform="translate(836.308594 0)"/>
     </g>
    </g>
   </g>
  </g>
 </g>
 <defs>
  <clipPath id="pb3ceb3d903">
   <rect x="45.056875" y="29.077969" width="876.13" height="279.409383"/>
  </clipPath>
 </defs>
</svg>
